G04 #@! TF.GenerationSoftware,KiCad,Pcbnew,(5.1.5-0-10_14)*
G04 #@! TF.CreationDate,2020-11-16T11:18:29-07:00*
G04 #@! TF.ProjectId,cr2032,63723230-3332-42e6-9b69-6361645f7063,rev?*
G04 #@! TF.SameCoordinates,Original*
G04 #@! TF.FileFunction,Soldermask,Bot*
G04 #@! TF.FilePolarity,Negative*
%FSLAX46Y46*%
G04 Gerber Fmt 4.6, Leading zero omitted, Abs format (unit mm)*
G04 Created by KiCad (PCBNEW (5.1.5-0-10_14)) date 2020-11-16 11:18:29*
%MOMM*%
%LPD*%
G04 APERTURE LIST*
%ADD10C,0.100000*%
G04 APERTURE END LIST*
D10*
G36*
X140985401Y-104046054D02*
G01*
X141473322Y-104143107D01*
X142392546Y-104523862D01*
X143219825Y-105076632D01*
X143923368Y-105780175D01*
X144476138Y-106607454D01*
X144856893Y-107526678D01*
X145051000Y-108502520D01*
X145051000Y-109497480D01*
X144856893Y-110473322D01*
X144476138Y-111392546D01*
X143923368Y-112219825D01*
X143219825Y-112923368D01*
X142392546Y-113476138D01*
X141473322Y-113856893D01*
X140985401Y-113953946D01*
X140497481Y-114051000D01*
X139502519Y-114051000D01*
X139014599Y-113953946D01*
X138526678Y-113856893D01*
X137607454Y-113476138D01*
X136780175Y-112923368D01*
X136076632Y-112219825D01*
X135523862Y-111392546D01*
X135143107Y-110473322D01*
X134949000Y-109497480D01*
X134949000Y-108502520D01*
X135143107Y-107526678D01*
X135523862Y-106607454D01*
X136076632Y-105780175D01*
X136780175Y-105076632D01*
X137607454Y-104523862D01*
X138526678Y-104143107D01*
X139014599Y-104046053D01*
X139502519Y-103949000D01*
X140497481Y-103949000D01*
X140985401Y-104046054D01*
G37*
G36*
X140237142Y-100718242D02*
G01*
X140385101Y-100779529D01*
X140518255Y-100868499D01*
X140631501Y-100981745D01*
X140720471Y-101114899D01*
X140781758Y-101262858D01*
X140813000Y-101419925D01*
X140813000Y-101580075D01*
X140781758Y-101737142D01*
X140720471Y-101885101D01*
X140631501Y-102018255D01*
X140518255Y-102131501D01*
X140385101Y-102220471D01*
X140237142Y-102281758D01*
X140080075Y-102313000D01*
X139919925Y-102313000D01*
X139762858Y-102281758D01*
X139614899Y-102220471D01*
X139481745Y-102131501D01*
X139368499Y-102018255D01*
X139279529Y-101885101D01*
X139218242Y-101737142D01*
X139187000Y-101580075D01*
X139187000Y-101419925D01*
X139218242Y-101262858D01*
X139279529Y-101114899D01*
X139368499Y-100981745D01*
X139481745Y-100868499D01*
X139614899Y-100779529D01*
X139762858Y-100718242D01*
X139919925Y-100687000D01*
X140080075Y-100687000D01*
X140237142Y-100718242D01*
G37*
M02*
