G04 #@! TF.GenerationSoftware,KiCad,Pcbnew,(5.1.5-0-10_14)*
G04 #@! TF.CreationDate,2020-11-16T11:18:29-07:00*
G04 #@! TF.ProjectId,cr2032,63723230-3332-42e6-9b69-6361645f7063,rev?*
G04 #@! TF.SameCoordinates,Original*
G04 #@! TF.FileFunction,Legend,Top*
G04 #@! TF.FilePolarity,Positive*
%FSLAX46Y46*%
G04 Gerber Fmt 4.6, Leading zero omitted, Abs format (unit mm)*
G04 Created by KiCad (PCBNEW (5.1.5-0-10_14)) date 2020-11-16 11:18:29*
%MOMM*%
%LPD*%
G04 APERTURE LIST*
%ADD10C,0.100000*%
%ADD11C,0.150000*%
G04 APERTURE END LIST*
D10*
X137619047Y-110964285D02*
X137785714Y-110964285D01*
X137857142Y-111226190D02*
X137619047Y-111226190D01*
X137619047Y-110726190D01*
X137857142Y-110726190D01*
X138357142Y-111226190D02*
X138190476Y-110988095D01*
X138071428Y-111226190D02*
X138071428Y-110726190D01*
X138261904Y-110726190D01*
X138309523Y-110750000D01*
X138333333Y-110773809D01*
X138357142Y-110821428D01*
X138357142Y-110892857D01*
X138333333Y-110940476D01*
X138309523Y-110964285D01*
X138261904Y-110988095D01*
X138071428Y-110988095D01*
X138809523Y-111226190D02*
X138571428Y-111226190D01*
X138571428Y-110726190D01*
X139357142Y-111226190D02*
X139357142Y-110726190D01*
X139642857Y-111226190D01*
X139642857Y-110726190D01*
X139952380Y-111226190D02*
X139904761Y-111202380D01*
X139880952Y-111178571D01*
X139857142Y-111130952D01*
X139857142Y-110988095D01*
X139880952Y-110940476D01*
X139904761Y-110916666D01*
X139952380Y-110892857D01*
X140023809Y-110892857D01*
X140071428Y-110916666D01*
X140095238Y-110940476D01*
X140119047Y-110988095D01*
X140119047Y-111130952D01*
X140095238Y-111178571D01*
X140071428Y-111202380D01*
X140023809Y-111226190D01*
X139952380Y-111226190D01*
X140285714Y-110892857D02*
X140404761Y-111226190D01*
X140523809Y-110892857D01*
X140690476Y-110773809D02*
X140714285Y-110750000D01*
X140761904Y-110726190D01*
X140880952Y-110726190D01*
X140928571Y-110750000D01*
X140952380Y-110773809D01*
X140976190Y-110821428D01*
X140976190Y-110869047D01*
X140952380Y-110940476D01*
X140666666Y-111226190D01*
X140976190Y-111226190D01*
X141285714Y-110726190D02*
X141333333Y-110726190D01*
X141380952Y-110750000D01*
X141404761Y-110773809D01*
X141428571Y-110821428D01*
X141452380Y-110916666D01*
X141452380Y-111035714D01*
X141428571Y-111130952D01*
X141404761Y-111178571D01*
X141380952Y-111202380D01*
X141333333Y-111226190D01*
X141285714Y-111226190D01*
X141238095Y-111202380D01*
X141214285Y-111178571D01*
X141190476Y-111130952D01*
X141166666Y-111035714D01*
X141166666Y-110916666D01*
X141190476Y-110821428D01*
X141214285Y-110773809D01*
X141238095Y-110750000D01*
X141285714Y-110726190D01*
X141642857Y-110773809D02*
X141666666Y-110750000D01*
X141714285Y-110726190D01*
X141833333Y-110726190D01*
X141880952Y-110750000D01*
X141904761Y-110773809D01*
X141928571Y-110821428D01*
X141928571Y-110869047D01*
X141904761Y-110940476D01*
X141619047Y-111226190D01*
X141928571Y-111226190D01*
X142238095Y-110726190D02*
X142285714Y-110726190D01*
X142333333Y-110750000D01*
X142357142Y-110773809D01*
X142380952Y-110821428D01*
X142404761Y-110916666D01*
X142404761Y-111035714D01*
X142380952Y-111130952D01*
X142357142Y-111178571D01*
X142333333Y-111202380D01*
X142285714Y-111226190D01*
X142238095Y-111226190D01*
X142190476Y-111202380D01*
X142166666Y-111178571D01*
X142142857Y-111130952D01*
X142119047Y-111035714D01*
X142119047Y-110916666D01*
X142142857Y-110821428D01*
X142166666Y-110773809D01*
X142190476Y-110750000D01*
X142238095Y-110726190D01*
D11*
X139214285Y-106428571D02*
X139357142Y-106476190D01*
X139404761Y-106523809D01*
X139452380Y-106619047D01*
X139452380Y-106761904D01*
X139404761Y-106857142D01*
X139357142Y-106904761D01*
X139261904Y-106952380D01*
X138880952Y-106952380D01*
X138880952Y-105952380D01*
X139214285Y-105952380D01*
X139309523Y-106000000D01*
X139357142Y-106047619D01*
X139404761Y-106142857D01*
X139404761Y-106238095D01*
X139357142Y-106333333D01*
X139309523Y-106380952D01*
X139214285Y-106428571D01*
X138880952Y-106428571D01*
X140309523Y-106952380D02*
X140309523Y-106428571D01*
X140261904Y-106333333D01*
X140166666Y-106285714D01*
X139976190Y-106285714D01*
X139880952Y-106333333D01*
X140309523Y-106904761D02*
X140214285Y-106952380D01*
X139976190Y-106952380D01*
X139880952Y-106904761D01*
X139833333Y-106809523D01*
X139833333Y-106714285D01*
X139880952Y-106619047D01*
X139976190Y-106571428D01*
X140214285Y-106571428D01*
X140309523Y-106523809D01*
X140642857Y-106285714D02*
X141023809Y-106285714D01*
X140785714Y-105952380D02*
X140785714Y-106809523D01*
X140833333Y-106904761D01*
X140928571Y-106952380D01*
X141023809Y-106952380D01*
X141357142Y-106571428D02*
X142119047Y-106571428D01*
X141738095Y-106952380D02*
X141738095Y-106190476D01*
M02*
